<svg xmlns="http://www.w3.org/2000/svg" viewBox="0 0 64 64">
  <defs>
    <linearGradient id="g" x1="0" y1="0" x2="1" y2="1">
      <stop offset="0" stop-color="#60a5fa"/>
      <stop offset="1" stop-color="#1d4ed8"/>
    </linearGradient>
  </defs>
  <rect x="2" y="2" width="60" height="60" rx="16" fill="url(#g)"/>
  <path d="M12 20c7-2.5 13-1.5 19 2.5v25c-6-4-12-5-19-2.5z" fill="#fff"/>
  <path d="M52 20c-7-2.5-13-1.5-19 2.5v25c6-4 12-5 19-2.5z" fill="#dbeafe"/>
  <path d="M16 26c4-1 7-.6 11 1.4M16 31c4-1 7-.6 11 1.4M16 36c4-1 7-.6 11 1.4" stroke="#93c5fd" stroke-width="1.6" fill="none" stroke-linecap="round"/>
  <path d="M46 7l1.6 4.4L52 13l-4.4 1.6L46 19l-1.6-4.4L40 13l4.4-1.6z" fill="#fde68a"/>
</svg>
